<?xml version="1.0" standalone="no"?>
<!DOCTYPE svg PUBLIC "-//W3C//DTD SVG 20010904//EN"
 "http://www.w3.org/TR/2001/REC-SVG-20010904/DTD/svg10.dtd">
<svg version="1.0" xmlns="http://www.w3.org/2000/svg"
 width="300.000000pt" height="300.000000pt" viewBox="0 0 300.000000 300.000000"
 preserveAspectRatio="xMidYMid meet">
<metadata>
Created by potrace 1.14, written by Peter Selinger 2001-2017
</metadata>
<g transform="translate(0.000000,300.000000) scale(0.100000,-0.100000)"
fill="#000000" stroke="none">
<path d="M867 2866 c-4 -9 -9 -85 -13 -169 l-7 -154 49 -33 48 -34 -73 -12
c-102 -17 -161 -37 -267 -91 -166 -83 -313 -212 -380 -333 -10 -19 -21 -37
-24 -40 -17 -17 -65 -121 -89 -197 -58 -178 -60 -392 -4 -573 24 -75 94 -226
112 -240 4 -3 18 -21 31 -40 13 -19 36 -48 50 -63 41 -46 188 -165 223 -181
17 -8 68 -31 111 -50 43 -20 89 -36 102 -36 13 0 34 -5 48 -12 l26 -11 2 -185
3 -185 65 -51 65 -51 415 2 c228 1 429 3 445 6 83 13 116 20 121 28 3 5 19 9
35 9 17 0 49 9 71 20 23 11 50 20 59 20 10 0 21 5 24 10 3 6 13 10 22 10 22 0
243 110 243 121 0 5 4 9 10 9 13 0 114 78 170 132 104 99 167 182 222 289 70
135 110 251 141 409 15 76 15 500 0 575 -20 100 -24 119 -33 140 -4 11 -15 47
-25 80 -15 53 -30 88 -68 160 -6 11 -17 34 -26 50 -20 41 -60 95 -123 168 -79
91 -89 100 -189 167 -35 24 -76 53 -90 64 -84 67 -188 127 -284 166 -46 19
-111 42 -125 45 -8 2 -31 9 -50 15 -140 44 -230 51 -651 56 -339 4 -387 3
-392 -10z m518 -345 c28 -5 66 -14 85 -19 19 -6 46 -14 60 -17 14 -4 34 -10
45 -15 11 -5 49 -21 85 -36 80 -34 111 -56 185 -134 73 -75 124 -154 166 -257
23 -56 28 -68 33 -93 3 -14 13 -56 23 -95 13 -54 17 -112 17 -255 -1 -175 -4
-205 -39 -365 -4 -16 -15 -49 -26 -72 -10 -24 -19 -47 -19 -53 0 -9 -31 -69
-73 -140 -27 -46 -127 -168 -164 -201 -130 -115 -357 -229 -522 -262 l-63 -13
-33 32 c-19 18 -41 36 -51 42 -27 15 -6 32 41 32 24 0 46 4 49 9 3 4 23 11 44
13 37 5 101 32 210 86 107 54 296 225 342 310 11 20 25 44 30 52 8 13 25 50
65 145 47 111 59 179 59 330 1 181 -19 266 -95 420 -54 111 -65 126 -158 227
-112 119 -290 222 -458 264 -12 3 -19 75 -8 85 5 5 94 -5 170 -20z"/>
</g>
</svg>
